<?xml version="1.0" standalone="no"?>
<!DOCTYPE svg PUBLIC "-//W3C//DTD SVG 20010904//EN"
 "http://www.w3.org/TR/2001/REC-SVG-20010904/DTD/svg10.dtd">
<svg version="1.0" xmlns="http://www.w3.org/2000/svg"
 width="712.000000pt" height="712.000000pt" viewBox="0 0 712.000000 712.000000"
 preserveAspectRatio="xMidYMid meet">
<metadata>
Created by potrace 1.14, written by Peter Selinger 2001-2017
</metadata>
<g transform="translate(0.000000,712.000000) scale(0.100000,-0.100000)"
fill="#000000" stroke="none">
<path d="M3395 6969 c-160 -15 -388 -72 -450 -113 -14 -9 -41 -41 -60 -71 -41
-63 -74 -91 -124 -105 -20 -5 -185 -23 -366 -40 -359 -33 -530 -54 -587 -70
-62 -18 -130 -71 -173 -135 -118 -176 -154 -558 -84 -899 25 -121 54 -211 79
-247 15 -20 16 -29 7 -38 -14 -14 0 -25 55 -42 45 -14 96 -5 141 25 l35 24 29
-30 c69 -74 171 -88 250 -36 l38 25 28 -28 c53 -54 143 -60 212 -14 33 23 34
23 50 5 51 -56 190 -66 262 -19 36 24 39 25 56 9 17 -17 17 -18 -7 -33 -36
-24 -48 -72 -33 -132 l13 -50 -45 -15 c-68 -23 -94 -66 -89 -151 3 -66 3 -66
-27 -75 -41 -12 -75 -66 -75 -119 0 -38 -3 -43 -41 -64 -53 -30 -79 -73 -79
-134 0 -58 17 -102 60 -151 32 -35 32 -37 14 -52 -18 -14 -17 -15 16 -11 24 3
45 -2 70 -19 102 -67 270 -87 490 -60 151 19 230 36 308 67 51 21 54 21 92 4
27 -12 49 -15 72 -10 18 3 54 6 79 6 37 -1 54 4 78 25 27 23 31 32 31 79 l0
52 47 7 c60 8 83 -11 83 -67 0 -73 50 -141 111 -154 l27 -5 -19 -45 c-52 -121
-85 -328 -74 -457 8 -89 35 -205 63 -269 11 -25 17 -56 15 -74 l-5 -31 -45 20
c-120 53 -239 -19 -279 -169 -24 -93 -5 -198 68 -383 17 -41 31 -83 33 -92 10
-51 202 -492 249 -572 122 -209 426 -358 664 -325 186 26 327 157 504 471 l53
94 43 -33 c37 -28 52 -33 98 -33 48 0 58 4 93 35 21 19 48 58 60 85 12 28 24
50 26 50 3 0 25 -15 49 -34 25 -19 62 -40 82 -46 85 -28 178 17 226 109 24 45
28 65 28 130 0 100 -10 135 -120 410 l-92 233 194 196 c249 252 330 359 452
597 31 61 79 142 107 180 111 155 219 393 269 592 62 250 97 627 86 933 -12
318 -28 404 -86 462 -35 35 -42 38 -96 38 -71 0 -170 -42 -201 -86 -12 -16
-48 -86 -81 -155 -103 -214 -249 -411 -407 -549 -73 -63 -203 -157 -208 -149
-146 209 -245 284 -593 456 -231 114 -331 177 -384 240 -21 26 -42 75 -67 153
-78 252 -176 487 -244 587 -79 116 -164 198 -179 173 -6 -10 -15 -8 -38 9
-142 100 -473 144 -837 110z"/>
<path d="M1876 4688 c-3 -13 -6 -49 -6 -80 0 -45 3 -58 15 -58 12 0 15 16 15
80 0 77 -11 104 -24 58z"/>
<path d="M2223 4693 c-3 -10 -16 -45 -29 -79 -28 -71 -28 -74 -10 -74 13 0 66
124 66 156 0 20 -19 18 -27 -3z"/>
<path d="M1590 4551 c0 -8 39 -102 46 -110 1 -1 7 0 13 3 7 4 1 27 -16 61 -25
50 -43 70 -43 46z"/>
<path d="M2062 4386 c-23 -8 -58 -26 -77 -40 -20 -15 -36 -22 -40 -16 -9 15
-62 12 -94 -4 -36 -19 -95 -85 -120 -134 -27 -54 -45 -163 -38 -236 3 -34 18
-97 33 -141 14 -44 35 -123 46 -175 29 -146 135 -450 155 -450 4 0 8 -17 7
-37 -1 -27 -6 -38 -22 -44 -26 -10 -79 -117 -92 -187 -13 -69 -15 -72 -56 -72
-38 0 -38 -1 -25 87 4 29 4 58 0 65 -10 16 24 80 68 128 19 22 31 40 26 40
-23 0 -140 -81 -211 -147 l-79 -71 -84 30 c-46 16 -180 63 -297 103 l-212 74
-15 -27 c-40 -72 -122 -134 -108 -82 6 24 -4 25 -31 5 -27 -20 -55 -19 -119 5
-73 27 -110 69 -156 178 -22 50 -53 109 -70 129 -36 44 -38 62 -12 94 19 23
20 23 39 6 11 -10 23 -29 26 -43 4 -15 14 -24 27 -24 29 0 32 21 11 78 -17 43
-18 53 -6 63 24 20 54 -1 84 -61 34 -67 45 -77 65 -60 21 17 19 59 -4 97 l-20
31 24 6 c34 9 50 0 68 -38 38 -80 34 -147 -10 -168 -33 -16 -73 -73 -73 -104
0 -35 16 -29 44 15 17 26 35 41 55 46 22 5 37 18 53 48 13 23 28 41 33 42 6 0
11 -46 13 -114 2 -100 0 -117 -18 -149 -35 -58 12 -74 54 -19 19 26 21 42 21
156 0 142 -12 177 -64 187 -24 5 -32 16 -52 67 -14 35 -35 69 -51 80 -24 18
-31 19 -70 7 -24 -7 -67 -12 -96 -11 -60 2 -116 -25 -127 -59 -4 -11 -15 -20
-25 -20 -24 0 -80 -65 -80 -94 0 -13 16 -44 35 -69 20 -26 52 -86 72 -133 45
-109 85 -161 146 -191 27 -14 47 -31 47 -40 0 -9 20 -35 44 -59 24 -23 47 -51
50 -62 4 -12 25 -35 47 -53 l40 -32 -43 -19 c-60 -27 -78 -46 -78 -83 0 -37
31 -74 68 -81 25 -5 27 -9 24 -47 -3 -34 1 -46 21 -65 14 -13 33 -22 44 -20
12 2 23 -7 33 -27 23 -45 61 -54 110 -26 36 20 46 21 91 12 113 -25 171 -11
228 54 17 20 31 30 31 23 0 -24 -40 -78 -71 -97 l-31 -19 42 -31 c23 -16 70
-39 104 -51 96 -31 287 -70 386 -77 l89 -6 -74 -79 c-90 -95 -151 -186 -210
-310 -44 -93 -87 -237 -100 -333 -5 -39 -23 -76 -85 -170 -71 -110 -144 -234
-245 -420 -71 -129 -133 -174 -258 -190 -90 -12 -147 -91 -133 -187 11 -70 62
-146 170 -252 181 -178 266 -231 427 -266 130 -28 165 -26 241 13 55 29 80 53
207 202 79 94 215 252 303 352 l159 183 140 0 c77 0 173 5 212 11 170 25 382
95 547 180 87 44 103 47 145 19 36 -24 95 -26 136 -4 92 47 117 324 48 510
-26 68 -88 140 -144 165 -52 24 -137 24 -242 0 -46 -10 -83 -16 -83 -14 0 3
13 29 29 57 16 28 43 89 59 136 72 205 68 403 -10 561 -38 77 -38 98 2 121 38
22 70 86 70 141 0 50 -23 89 -99 173 -46 50 -68 90 -155 276 -84 184 -143 238
-311 288 -76 23 -118 30 -186 30 l-87 0 -18 73 c-13 52 -18 116 -18 234 l-1
162 -29 29 c-20 22 -32 50 -42 98 -8 37 -19 73 -25 80 -8 10 -1 23 30 52 59
56 53 111 -14 128 -15 4 -22 11 -18 20 7 20 -14 67 -36 81 -31 20 -84 23 -129
9z"/>
<path d="M1436 4272 c-6 -10 66 -62 85 -62 6 0 9 6 7 13 -6 17 -85 60 -92 49z"/>
<path d="M2745 3809 c-59 -45 -129 -90 -227 -143 -83 -45 -106 -62 -96 -72 8
-7 118 34 167 62 25 15 81 49 125 77 l79 51 24 -29 c56 -69 63 -82 50 -92 -6
-6 -42 -27 -79 -47 -38 -21 -68 -43 -68 -49 0 -34 24 -89 44 -102 19 -13 39
-14 127 -4 57 5 108 14 114 20 6 6 -3 37 -23 86 -17 42 -29 80 -26 84 2 4 43
31 90 60 46 29 87 56 91 62 3 5 -1 15 -8 23 -12 11 -28 5 -108 -43 l-93 -57
-31 39 c-37 47 -95 105 -105 105 -4 0 -25 -14 -47 -31z"/>
<path d="M3163 3387 c-79 -39 -143 -78 -143 -85 0 -16 13 -13 120 30 101 40
200 96 200 113 0 26 -32 16 -177 -58z"/>
<path d="M950 3261 c0 -34 -8 -31 295 -131 133 -44 197 -70 213 -87 28 -30 75
-29 80 3 2 16 34 33 155 84 84 35 154 64 155 66 2 1 1 12 -3 23 -6 19 -7 19
-58 2 -29 -10 -106 -40 -173 -65 l-120 -47 -264 90 c-145 50 -267 91 -272 91
-4 0 -8 -13 -8 -29z"/>
<path d="M3296 3091 c-72 -32 -132 -64 -134 -71 -6 -18 30 -8 141 41 51 23
104 46 120 52 27 11 38 38 15 36 -7 0 -71 -27 -142 -58z"/>
<path d="M3341 2801 c-23 -12 -30 -20 -22 -26 14 -8 91 23 91 37 0 13 -33 8
-69 -11z"/>
</g>
</svg>
